# xmcd
# 
# Track frame offsets:
#	183
#	17925
#	39240
#	58225
#	72285
#	100805
#	125548
#	147563
#	165760
#	185160
#
# Disc length: 3317 seconds
#
# Revision: 1
# Processed by: cddbd v1.4PL0 Copyright (c) Steve Scherf et al.
# Submitted via: Audio-CD-Archiv 2.10.446
#
DISCID=8d0cf30a
DTITLE=Charlie Daniels - The Door
DYEAR=1900
DGENRE=country
TTITLE0=The Business Of Love
TTITLE1=Washed In The Blood
TTITLE2=Jesus Died For You
TTITLE3=Sunday Morning
TTITLE4=Protected By Prayer
TTITLE5=Lay It On The Line
TTITLE6=Praying To The Wrong God
TTITLE7=Two Out Of Three
TTITLE8=End Of The World
TTITLE9=Jerusalem Triology
EXTD=
EXTT0=
EXTT1=
EXTT2=
EXTT3=
EXTT4=
EXTT5=
EXTT6=
EXTT7=
EXTT8=
EXTT9=
PLAYORDER=
